<svg xmlns="http://www.w3.org/2000/svg" xmlns:xlink="http://www.w3.org/1999/xlink" version="1.1" x="0px" y="0px" viewBox="0 0 100 100" enable-background="new 0 0 100 100" xml:space="preserve"><path d="M40.467,54.844c-7.811,0-14.265-8.467-15.302-19.46h-2.124c1.18,12.52,8.531,22.166,17.426,22.166  c8.896,0,16.247-9.646,17.426-22.166h-2.123C54.732,46.377,48.279,54.844,40.467,54.844z"></path><path d="M70.646,79.674l-0.043,0.216l-0.106,0.548l-0.394,0.396l-0.161,0.162l-1.967,1.962c-0.68,0.664-1.576,1.029-2.524,1.029  c-0.954,0-1.856-0.371-2.556-1.059l-4.26-4.275c-0.683-0.683-1.057-1.591-1.053-2.553c0.002-0.967,0.381-1.873,1.063-2.545  l1.946-1.938l0.155-0.155l0.402-0.402l0.56-0.104l0.207-0.038l0.233-0.045l6.094-6.065c-2.64-0.106-5.108-1.172-6.99-3.05  c-1.636-1.638-2.672-3.74-2.979-6.002c-0.815-0.206-1.642-0.384-2.488-0.501c-0.04-0.006-0.082-0.009-0.123-0.017  c-0.325-0.041-0.653-0.08-0.983-0.11c-0.001,0.033-0.011,0.067-0.012,0.101c-0.004,0.097-0.021,0.189-0.033,0.288  c-0.061,0.548-0.224,1.08-0.479,1.592c-1.721,4.331-7.286,12.538-10.563,17.195l-0.675-9.679c0.957-0.491,1.78-1.302,2.308-2.246  c0.379-0.678,0.612-1.417,0.612-2.171c0,0-2.445,1.084-4.941,1.084c-0.143,0-0.285-0.006-0.427-0.013  c-0.143,0.007-0.284,0.013-0.427,0.013c-2.496,0-4.941-1.084-4.941-1.084c0,0.754,0.232,1.493,0.612,2.171  c0.528,0.944,1.351,1.755,2.308,2.246l-0.675,9.679c-3.278-4.657-8.843-12.864-10.563-17.195c-0.257-0.512-0.42-1.044-0.481-1.592  c-0.012-0.099-0.029-0.191-0.033-0.288c-0.001-0.033-0.01-0.067-0.011-0.101c-0.331,0.03-0.659,0.069-0.984,0.11  c-0.042,0.008-0.083,0.011-0.123,0.017C13.763,56.837,5,66.613,5,78.436c0,12.93,10.483,12.899,23.412,12.899h12.055h12.056  c12.929,0,23.411,0.03,23.411-12.899c0-1.325-0.125-2.619-0.337-3.884l-4.908,4.888L70.646,79.674z"></path><path d="M22.21,32.78h0.594h3.201h1.231h26.462h1.231h3.201h0.592c1.423,0,2.575-1.153,2.575-2.574c0-1.422-1.152-2.576-2.575-2.576  h-0.701c0-6.842-3.918-12.765-9.629-15.662l-0.523,2.967l-0.932,5.281c-0.115,0.653-0.682,1.113-1.322,1.113  c-0.078,0-0.157-0.007-0.236-0.021c-0.733-0.129-1.221-0.826-1.091-1.559l1.025-5.82l0.635-3.603  c-0.624-0.998-1.729-1.661-2.992-1.661h-4.982c-1.262,0-2.366,0.664-2.991,1.661l0.635,3.603l1.026,5.82  c0.129,0.733-0.359,1.43-1.092,1.559c-0.079,0.015-0.157,0.021-0.234,0.021c-0.642,0-1.21-0.459-1.325-1.113l-0.931-5.28  l-0.523-2.966c-5.712,2.896-9.628,8.818-9.628,15.66H22.21c-1.422,0-2.574,1.154-2.574,2.576  C19.637,31.627,20.789,32.78,22.21,32.78z"></path><path d="M71.729,65.056l-1.313,0.321l-0.192,0.048l-0.142,0.141l-7.037,7.004l-0.784,0.15l-0.217,0.04l-0.154,0.155l-1.95,1.941  c-0.335,0.331-0.521,0.775-0.521,1.247c-0.002,0.473,0.181,0.916,0.515,1.249l4.263,4.278c0.341,0.335,0.784,0.519,1.254,0.519  c0.467,0,0.907-0.181,1.242-0.507l1.952-1.948l0.155-0.156l0.042-0.216l0.151-0.785l7.032-7.004l0.142-0.141l0.048-0.193  l0.331-1.326L71.729,65.056z"></path><path d="M81.119,51.359l0.503,0.505l0.508-0.501l0.421-0.415c0.606,0.813,1.46,2.37,0.265,3.557  c-0.419,0.418-1.664,1.653-3.154,3.132L84,61.977l3.08-3.084c0.262-0.161,0.899-0.482,1.433-0.482c0.318,0,0.472,0.115,0.558,0.203  c1.423,1.423,0.256,3.445,0.245,3.466l-0.281,0.478l0.391,0.392l1.013,1.016l0.457,0.459l0.502-0.409  c0.143-0.116,3.497-2.884,3.598-6.458c0.096-3.372-0.971-4.779-1.093-4.929L93.878,52.6l-0.025-0.025l-3.904-3.92l-0.126-0.125  l-0.169-0.054l-2.944-0.909l-0.381-0.383l0.573-0.567l0.51-0.505l-0.507-0.509l-1.594-1.603c-0.277-0.277-0.644-0.429-1.033-0.429  c-0.387,0-0.751,0.149-1.023,0.422l-3.726,3.712c-0.274,0.273-0.427,0.64-0.427,1.029c0,0.388,0.15,0.752,0.425,1.026L81.119,51.359  z"></path><path d="M93.345,73.917L76.79,57.363c1.154-3.079,0.497-6.686-1.984-9.163c-1.602-1.605-3.676-2.447-5.775-2.53l-1.624,1.623  l4.036,4.037l-0.001,3.354l-2.411,2.405h-3.347l-4.038-4.035l-1.624,1.624c0.081,2.102,0.924,4.172,2.529,5.779  c1.691,1.688,3.907,2.532,6.12,2.532c1.031,0,2.063-0.184,3.041-0.55l16.555,16.557c0.699,0.702,1.617,1.053,2.534,1.053  c0.921,0,1.842-0.352,2.544-1.053C94.75,77.592,94.744,75.316,93.345,73.917z M89.581,75.232c0.339-0.342,0.783-0.512,1.229-0.512  c0.442,0,0.885,0.168,1.225,0.506c0.674,0.68,0.672,1.78,0,2.456c-0.341,0.339-0.784,0.507-1.228,0.507  c-0.444,0-0.888-0.168-1.229-0.508C88.903,77.007,88.901,75.908,89.581,75.232z"></path></svg>